<?xml version="1.0" encoding="UTF-8"?>
<svg id="_레이어_2" data-name="레이어 2" xmlns="http://www.w3.org/2000/svg" viewBox="0 0 401.9 112.02">
  <defs>
    <style>
      .cls-1 {
        fill: #fff;
        stroke-width: 0px;
      }
    </style>
  </defs>
  <g id="Layer_1" data-name="Layer 1">
    <polygon class="cls-1" points="0 34.28 23.96 34.28 23.96 89.11 37.41 89.11 37.41 34.28 61.37 34.28 61.37 22.91 0 22.91 0 34.28"/>
    <polygon class="cls-1" points="279.61 72.09 259.61 22.91 245.38 22.91 272.3 89.11 286.93 89.11 313.85 22.91 299.61 22.91 279.61 72.09"/>
    <polygon class="cls-1" points="388.45 22.91 388.45 74.16 360.22 22.91 340.77 22.91 340.77 89.11 354.22 89.11 354.22 37.86 382.45 89.11 401.9 89.11 401.9 22.91 388.45 22.91"/>
    <polygon class="cls-1" points="183.77 112.02 196.02 102.23 196.02 10.02 183.77 0 183.77 112.02"/>
    <polygon class="cls-1" points="218.12 112.02 205.88 102.23 205.88 10.02 218.12 0 218.12 112.02"/>
    <path class="cls-1" d="m149.77,44.53c0-11.89-9.65-21.61-21.54-21.61h-36.46v66.19h13.45v-55.64h19.97c6.15,0,11.13,4.91,11.14,11.05,0,6.15-4.99,11.05-11.14,11.05h-12.23s25.85,33.53,25.85,33.53h16.19l-19.65-24.19c8.4-2.96,14.42-11,14.43-20.4"/>
  </g>
</svg>